<svg width="20" height="20" viewBox="0 0 20 20" fill="none" xmlns="http://www.w3.org/2000/svg">
<path d="M5 0.5H15C17.4853 0.5 19.5 2.51472 19.5 5V15C19.5 17.4853 17.4853 19.5 15 19.5H5C2.51472 19.5 0.5 17.4853 0.5 15V5C0.5 2.51472 2.51472 0.5 5 0.5Z" stroke="black"/>
<path fill-rule="evenodd" clip-rule="evenodd" d="M10.5346 7.98556C10.7791 6.63574 11.8672 5 15 5H15V7H14.5C14.1275 7 13.5687 7.09999 13.1395 7.35749C13.0849 7.39028 13.0326 7.42515 12.9832 7.46261C12.9352 7.50557 12.8933 7.54889 12.8567 7.59128C12.587 7.90346 12.5 8.28514 12.5 8.5V10.5H14V12.5H12.5V19.5H10.5V12.5H9V10.5H10.5V8.5C10.5 8.32073 10.5119 8.14931 10.5346 7.98556Z" fill="black"/>
<path d="M14.5 12.5L15 10.5H14.5V12.5Z" fill="black"/>
<rect x="14" y="10.5" width="0.5" height="2" fill="black"/>
</svg>
