<svg id="Groupe_1" data-name="Groupe 1" xmlns="http://www.w3.org/2000/svg" width="2492.125" height="646.099" viewBox="0 0 2492.125 646.099">
  <defs>
    <style>
      .cls-1 {
        fill: #221f20;
        fill-rule: evenodd;
      }
    </style>
  </defs>
  <path id="Forme_2" data-name="Forme 2" class="cls-1" d="M3245,562.2c-3.16,5.808-6.55,11.5-9.4,17.457-2.78,5.8-5.42,11.592-10.35,15.972-4.98,4.432-8.11,10.48-16.5,11.391-4.43.48-9.06,4.3-14.3,3.164-2.36-.51-5.29-1.625-6.51-3.438-2.83-4.218-6.37-5.307-11.08-4.931-4.81.383-9.65,0.353-14.48,0.416-3.51.046-7.09-.247-9.5,3.115a0.665,0.665,0,0,1-.37.311c-12.28.728-12.4,11.444-15.74,19.362-1.43,3.381-1.94,7.143-2.97,10.7a16.239,16.239,0,0,1-1.57,3.5c-0.57.989-2.01,1.888-1.95,2.764,0.45,7.906-4.16,13.774-7.65,20.137-0.56,1.022-.13,2.576-0.19,3.882s0.24,2.777-.26,3.9c-1.94,4.451-4.72,8.62-6.11,13.22a164.01,164.01,0,0,0-4.85,21.814c-0.5,3.261.4,6.686-3.07,8.836a1.758,1.758,0,0,0-.78,1.228c-0.06,9.815-6.39,18.79-3.68,29.041,0.94,3.537.59,7.193-2.45,10.2-0.97.971-1.16,3.047-1.18,4.625-0.15,9.824-.27,19.653-0.08,29.475,0.04,2.125,1.41,4.21,2.08,6.342,0.57,1.823.98,3.694,1.51,5.531a28.833,28.833,0,0,0,1.56,4.9c1.75,3.537,2.99,7.8,5.78,10.246,4.28,3.766,8.98,7.464,15.69,6.827a122.9,122.9,0,0,1,17.97-.016c5.92,0.31,11.64.285,16.86-3.068a5.2,5.2,0,0,1,3.32-.861c6.46,1.112,10.26-3.507,14.77-6.615,0.92-.633,1.97-1.718,2.87-1.635,11.26,1.032,19.32-5.506,27.84-11.2,1.41-.945,3.99-0.156,6.03-0.168-0.08,1.985.41,4.237-.36,5.9-1.81,3.915-5.32,7.318-6.18,11.346-1.8,8.409-8.57,12.38-13.85,17.67-3,3-6.71,5.279-10.1,7.878a2.819,2.819,0,0,1-.82.528c-4.84,1.436-9.79,2.578-14.5,4.344-5.07,1.9-9.88,4.492-14.9,6.558a16.774,16.774,0,0,1-6.5,1.514c-4.38-.1-8.52-0.444-12.09,3.1-1.16,1.141-3.69,1.082-5.61,1.22-5.93.426-11.98,1.548-17.78,0.837-15.04-1.84-30.75,1.5-45.08-5.684a12.586,12.586,0,0,1-2.7-2.139c-1.35-1.247-2.41-3.295-3.95-3.738-7.88-2.255-8.78-9.184-11.23-15.329-1.71-4.263-4.4-8.131-6.65-12.174a3.268,3.268,0,0,1-.73-1.251c0.74-8.253-5.77-15.2-3.91-23.845,1-4.615-.15-9.653.3-14.44,0.29-3.1,1.71-6.107,2.68-9.137,0.25-.78,1.17-1.63.99-2.218-2.83-9.637,4.42-17.821,3.87-27.184-0.16-2.726,1.6-5.525,2.21-8.348,0.68-3.166.93-6.427,1.61-9.593,0.67-3.1,1.64-6.13,2.5-9.186,0.3-1.092.66-2.169,1-3.252,0.79-2.54,1.57-5.086,2.4-7.616,0.15-.459.62-0.816,0.75-1.276,1.56-5.443,2.87-10.963,4.65-16.329,2.06-6.2,4.8-12.178,6.69-18.418,0.88-2.892.33-6.191,0.69-9.273a35.054,35.054,0,0,1,1.56-6.934c1.84-5.5,3.85-10.951,5.85-16.4a27.7,27.7,0,0,1,1.82-3.9c0.49-.851,1.54-1.466,1.8-2.345,1.36-4.779,2.48-9.629,3.85-14.407a20.417,20.417,0,0,1,2.31-5.346c2.81-4.327,1.78-8.5-3.15-10.265a27.349,27.349,0,0,0-8.8-1.493c-12-.107-24,0.047-35.99.114a4.226,4.226,0,0,0-1.98.159c-11.55,6.993-24.22,3.446-36.45,3.884-3.92.141-8.08-.991-10.78,3.3-0.39.632-1.78,0.707-2.74,0.908-4.91,1.033-7.01,4.807-4.61,9.013,3.01,5.288,5.5,11.375,9.86,15.27,4.93,4.395,5.73,10.455,8.85,15.464,1.83,2.952.47,7.782,0.97,11.714,0.34,2.682,1.49,5.255,2.15,7.907a28.057,28.057,0,0,1,1.16,6.157c0.13,9.127.06,18.258,0.09,27.388a2.688,2.688,0,0,0,.31,1.449c6.71,9.672,2.37,20.642,3.59,30.953,0.43,3.6-.25,7.317-0.13,10.971,0.13,3.864-1.35,7.168-2.35,10.736-1.8,6.45-4.93,13.16-4.85,19.451,0.09,6.652-3.52,11.063-5.26,16.485-1.18,3.7-4.73,6.678-5.76,10.384-3.21,11.553-11.79,19.234-18.93,28-1.87,2.306-2.96,5.338-5.05,7.366a198.767,198.767,0,0,1-16.2,14.271c-2.89,2.233-6.61,3.437-10.05,4.88-1.15.48-2.64,0.054-3.88,0.382-6.49,1.715-13,3.381-19.01,6.522a11.76,11.76,0,0,1-4.49,1.55c-3.82.221-7.67,0.182-11.5,0.05-5.47-.189-10.93-0.808-15.47,3.511-0.87.832-2.83,0.71-4.28,0.719-5.67.035-11.45-.786-16.98,0.052-11.67,1.768-21.99-3.628-32.99-5.277-1.5-.226-2.89-1.578-4.2-2.568-1.06-.793-1.78-2.3-2.92-2.681-11.04-3.639-13.24-15.612-21.07-22.4-3.33-2.888-4.19-8.634-6.16-13.085-1.77-3.987-3.56-7.965-5.28-11.973-1.96-4.566-3.54-9.327-5.86-13.7-2.44-4.6-5.1-8.944-3.65-14.469a2.119,2.119,0,0,0-.52-1.832c-5.01-3.412-3.43-8.571-3.47-13.2-0.14-15.821-.12-31.643-0.15-47.464,0-1-.4-2.345.1-2.94,3.74-4.483,3.55-9.972,4.39-15.262a96.493,96.493,0,0,1,3.09-12.844c1.85-6.1,4.05-12.1,6.05-18.157,1.81-5.473,3.38-11.03,5.39-16.425a60.589,60.589,0,0,1,4.48-8.748q5.6-9.7,11.38-19.287a53.382,53.382,0,0,1,3.84-5.212c0.51-.647,1.62-1.053,1.76-1.717,2.51-11.652,14.19-16.049,19.97-25.15,1.11-1.763,5.06-1.652,6.35-3.4,5.27-7.147,13.5-10.1,20.77-13.455,6.59-3.041,10.79-8.949,18.28-11.167,7.98-2.362,15.14-5.137,23.56-2.936,2.92,0.762,6.29.158,9.4-.244,4.3-.556,7.57.242,10.46,3.992,1.55,2.021,4.97,2.5,7.25,4.1,4.11,2.866,8.02,6.016,11.97,9.11,1.67,1.313,3.23,2.774,4.83,4.182,4.79,4.223,9.98,8.093,14.24,12.8,3.02,3.341,5.38,3.865,8.87,1.369,12.13-8.678,24.02-17.742,36.58-25.756,6.12-3.9,12.63-7.018,17.77-12.373,1.12-1.169,3.68-1.318,5.58-1.324,7.66-.025,15.33.484,22.97,0.184,3.53-.139,6.96-1.929,10.51-2.536,4.68-.8,9.51-1.934,14.16-1.548,6.21,0.515,12.37,2.107,18.43,3.7,3.99,1.052,7.5,1.387,10.63-1.789a2.955,2.955,0,0,1,1.63-1.079c7.76,0.189,11.26-6.22,16.4-10.206,3.29-2.551,7.45-3.95,11.12-6.054,1.97-1.136,3.66-2.769,5.59-4,2.82-1.783,5.79-3.308,8.58-5.117,2.86-1.851,5.66-3.815,8.35-5.9,4.57-3.547,8.96-7.181,15.44-6.287,2.62,0.362,3.59,1.235,4.08,3.872,1.2,6.444-2.72,10.924-5.45,15.9-0.71,1.3-2.27,2.534-2.23,3.763,0.17,5.7.27,11.229-3.95,15.876-0.21.226,1.74,3.536,2.9,3.679,6.54,0.807,13.14,1.186,19.72,1.514,6.49,0.324,12.99.676,19.47,0.477,2.59-.079,5.15-1.544,7.69-2.488,1.21-.453,2.34-1.666,3.51-1.669,6.74-.015,13.48.229,20.22,0.385v4ZM2900.44,830.807c8.45,0.407,8.86.2,14.14-6.184,1.27-1.525,2.74-2.882,4.15-4.28a59.858,59.858,0,0,0,15.44-24.906c1.73-5.434,4.19-10.447,3.68-16.307a1.213,1.213,0,0,1,.31-0.928c6.23-5.38.05-15.019,6.92-20.253,0.47-.355.04-1.9,0-2.9-0.78-18.993,1.99-38.155-3.61-56.951-1.23-4.122.87-9.161-3.52-12.628-0.65-.509-0.27-2.217-0.54-3.33a54.054,54.054,0,0,0-1.8-6.539c-1.76-4.725-3.44-9.51-5.64-14.039-3.21-6.622-6.57-13.2-10.39-19.482-2.25-3.686-6.46-6.343-8.12-10.182-2.34-5.417-5.03-10.046-9.8-13.68-2.31-1.765-4.01-4.566-5.44-7.2-1.17-2.162-9.09-9.086-11.46-9.131a3.61,3.61,0,0,0-1.92.34c-2.86,1.866-5.91,3.546-8.42,5.814a71.676,71.676,0,0,0-16.82,21.988c-2.68,5.534-4.64,11.406-7.05,17.073-1.79,4.213-3.85,8.311-5.65,12.521-0.85,1.993-1.36,4.13-2.04,6.2-0.79,2.375-1.57,4.752-2.41,7.107-0.43,1.209-1.41,2.36-1.44,3.557a79.65,79.65,0,0,1-2.58,18.392c-2.18,8.264-1.34,17.479-.87,26.234,0.64,11.611,2.05,23.187,3.41,34.744,0.34,2.842,1.73,5.568,2.7,8.322,0.49,1.387,1.89,2.929,1.59,4.041-1.86,6.706,1.15,12.176,4.06,17.665a35.137,35.137,0,0,0,4.6,6.989c7.07,7.844,14.65,15.244,21.42,23.329A39.433,39.433,0,0,0,2900.44,830.807ZM1561.78,871c-4.95-1.868-7.57-5.832-10.21-10.2-4.81-7.933-9.78-15.878-15.65-23.024-6.94-8.439-17.18-9.827-27.34-9.27-7.89.432-15.7,2.27-23.57,3.348a23.877,23.877,0,0,1-4.91-.284c-2.57-.192-5.14-0.365-7.7-0.615-1.78-.175-3.8,0-5.28-0.786-6.32-3.322-12.25-1.938-17.32,1.987-4.28,3.3-7.75,7.677-11.42,11.717-2.89,3.177-5.63,6.5-8.28,9.878-8.89,11.334-21.1,12.454-34.13,11.3-4.21-.372-5.63-2.757-4.67-6.437a22.473,22.473,0,0,1,3.25-6.645c7.66-11.414,15.35-22.806,23.2-34.092,6.62-9.512,13.58-18.784,20.15-28.321,5.62-8.143,10.83-16.565,16.37-24.758,3.06-4.518,6.57-8.724,9.63-13.243,3.49-5.168,6.51-10.653,10.08-15.764,2.91-4.178,6.31-8.019,9.52-11.99,2.39-2.955,5.24-5.628,7.15-8.863,6.38-10.837,16.92-16.479,27.2-22.489,2.72-1.587,5.7-2.719,8.46-4.236,3.7-2.032,6.6-.906,7.29,3.25,1.15,6.97,1.86,14.019,3.18,20.952a59.194,59.194,0,0,0,3.62,11.327c4.23,10.2,8.45,20.412,13.14,30.406,2.85,6.087,6.62,11.739,9.82,17.67a65.585,65.585,0,0,1,2.83,6.9,34.716,34.716,0,0,0,1.63,4.173c5.59,10.085,11.27,20.126,16.87,30.2a11.514,11.514,0,0,1,1.46,3.672c1,6.442,3,12.048,9.04,15.829,3.51,2.2,3.31,6.3,2.29,10.018-3.89,14.145-12.48,23.918-26.7,28.387h-9Zm-63.58-74.822c9.27-.013,13.52-5.615,11.02-12.276a156.98,156.98,0,0,0-8.81-18.93c-1.53-2.858-4.28-3.968-7.55-1.605-6.16,4.457-10.01,10.7-12.47,17.541-0.88,2.462.26,7.625,2.14,8.732C1487.99,792.858,1494.3,794.647,1498.2,796.178Zm906.77-4.53c0,13.5.07,25.319-.07,37.131-0.02,1.878-.34,4.493-1.56,5.5-6.87,5.618-13.88,11.1-21.2,16.109-4.27,2.918-9.14,4.981-13.86,7.179a15.286,15.286,0,0,1-5.2.914c-6.42.494-12.84,0.9-19.27,1.328-9.67.648-19.06,4.4-29.01,2.453-1.55-.3-3.64.638-5.1,1.586-9.13,5.92-19.16,2.18-28.78,2.782-0.89.056-1.86-1.228-2.79-1.9s-2.05-2.084-2.77-1.9c-5.64,1.421-9.42-2.935-14.12-4.343-1.58-.475-2.97-1.815-4.28-2.953-5.29-4.6-8.18-11.881-15.78-13.945-0.78-.212-1.35-1.376-1.91-2.18-2.29-3.348-4.22-7.009-6.87-10.031-4.18-4.75-7.55-9.7-9.01-16.024a22.52,22.52,0,0,0-4.34-8.685c-5.81-7.235-7.37-15.442-7.13-24.413,0.07-2.432-1.42-4.907-2.21-7.358-0.4-1.237-1.17-2.456-1.2-3.7-0.15-6.455.18-12.933-.24-19.365-0.31-4.88-1.68-9.683-2.25-14.559-0.56-4.927-1.82-10.151-.78-14.8,1.45-6.482,2.31-12.52-.13-18.849-0.41-1.064.16-2.656,0.61-3.878,3.46-9.281,3.46-18.908,2.84-28.564a12.214,12.214,0,0,1,4.68-10.963,4.142,4.142,0,0,0,1.47-1.309c1.79-5.551,3.43-11.148,5.21-16.7,0.6-1.889,1.07-4,2.26-5.49,5.36-6.7,10.94-13.217,16.47-19.779a50.683,50.683,0,0,1,4.59-5.091c3.05-2.777,6.22-5.435,9.45-8a48.732,48.732,0,0,1,5.32-3.414,26.688,26.688,0,0,0,3.04-1.6c5.35-4.318,10.49-8.922,16.01-13.018a172.079,172.079,0,0,1,14.58-9.417c4.7-2.8,9.56-5.357,14.43-7.86a12.15,12.15,0,0,1,3.85-.7c1.31-.178,3.01.194,3.89-0.5,8.33-6.6,17.96-2.226,26.92-3.253,1.03-.117,2.45.939,3.29,1.826,7.32,7.714,14.18,15.923,21.97,23.124,4.24,3.919,8.16,7.963,12.11,12.14,8.13,8.586,17.58,15.908,26.21,24.037,2.04,1.922,3.35,4.86,4.29,7.574,0.3,0.885-1.38,2.962-2.62,3.777-4.58,3.012-9.52,5.5-14.03,8.607-5.2,3.579-9.72,8.237-16.79,8.022a8.966,8.966,0,0,0-4.92,1.872c-5.77,4.046-12.21,2.484-18.38.039-8.51-3.377-12.65-11.728-20.97-15.256-4.61-1.952-7.53-7.714-11.44-11.518-4-3.893-8.31-7.478-12.46-11.228a13.533,13.533,0,0,1-2.68-2.811c-5.02-8.411-12.94-8.487-19.7-1.236-4.92,5.282-8.1,11.417-11.41,17.529a34.134,34.134,0,0,0-3.75,11.5c-0.88,6.566-4.14,11.9-7.16,17.5-1.08,1.98-1.09,4.814-.82,7.173,0.46,4.113.68,7.95-2.52,11.2a4.756,4.756,0,0,0-1.31,2.635c-0.69,7.187-1.65,14.381-1.75,21.583a160.21,160.21,0,0,0,1.3,20.753c0.45,3.787,1.98,7.448,3.04,11.159a4.534,4.534,0,0,1,.52.823c-0.49,6.613,1.96,12.393,4.6,18.271,2.09,4.635,3.07,9.754,4.87,14.534a137.347,137.347,0,0,0,6.16,14.2c3.27,6.37,6.86,12.579,10.51,18.739,0.69,1.156,2.3,1.768,3.49,2.615,2.95,2.092,6.3,3.8,8.76,6.361,2.77,2.875,4.91,5.743,9.36,6.765,3.51,0.806,6.5,3.884,9.71,5.982,0.55,0.361.96,1.174,1.51,1.256,9.08,1.348,17.42,7.008,27.22,4.357,3.34-.9,5.7-2.453,5.65-5.883-0.05-3.743.06-7.945-1.56-11.1a26.893,26.893,0,0,1-2.92-13.376q0.39-20.677.51-41.359c0.02-2.587-1.48-3.894-3.71-5.643-6.79-5.356-14.37-4.127-21.88-4.188-8.5-.068-17.01.26-25.49-0.133a37.958,37.958,0,0,1-12.29-2.692,10.02,10.02,0,0,1-5.1-5.706c-1-3.277.31-6.106,3.87-8.178,3.95-2.3,7.09-5.949,10.87-8.612,2-1.417,4.6-2.015,6.94-2.939q2.865-1.13,5.76-2.155c5.6-1.969,11.1-5.14,16.82-5.6,11.25-.905,22.61-0.332,33.93-0.278,1.77,0.008,4.19-.137,5.2.885,3.54,3.591,7.8,3.192,12.11,3.13,12.99-.186,25.97-0.273,38.95-0.646,2.17-.062,4.29-1.388,6.45-2.073a17.659,17.659,0,0,1,4.63-1.246c9.08-.213,13.13-4.445,13.23-13.292,0.03-2.554,1.52-5.108,2.44-7.627,0.28-.753,1.38-1.488,1.27-2.059-1.74-8.484,6.49-15.436,3.64-24.183-0.49-1.486.47-4.235,1.71-5.329,2.82-2.491,3.24-5.216,2.46-8.531-0.77-3.263-.52-6.136,2.27-8.634,1.02-.913.96-2.959,1.6-4.391,2.55-5.662,3.62-11.512,4.28-17.745,0.47-4.461,4.3-8.537,6.46-12.87,0.56-1.121.37-2.59,0.71-3.85,0.7-2.613,1.6-5.175,2.27-7.795a41.3,41.3,0,0,0,1.46-7.157c0.16-2.128-.42-4.3-0.5-6.458-0.27-7.215,1.01-8.345,8.11-8.87,2.55-.189,4.97-1.746,7.52-2.421a21.885,21.885,0,0,1,6.65-1.053c3.89,0.226,7.58.754,10.58-2.729,0.79-.918,2.74-0.781,4.08-1.3,1.93-.747,3.73-1.858,5.69-2.442,2.52-.749,5.28-1.816,7.67-1.368,1.15,0.214,2.04,3.54,2.43,5.574a42.087,42.087,0,0,1,.34,7.462c0.01,1.491.38,3.356-.34,4.418-6.81,9.982-5.89,22.432-10.77,33.149-2.13,4.7-.44,11.136-0.51,16.784-0.02,1.3.43,3.139-.25,3.806-4.12,4.05-3.36,9.1-3.37,14.029a4.713,4.713,0,0,1-.25,1.96c-5.57,11.8-6.27,24.479-7.41,37.2-0.42,4.752-3.72,9.257-5.77,13.844-0.4.882-1.48,1.563-1.62,2.438-1.32,8.2-3.3,16.407-3.55,24.656-0.35,11.678-.47,23.272-3.76,34.6-1.06,3.634-1.03,7.134,1.75,10.331a6.675,6.675,0,0,1,1.1,4.54c-0.5,5.891,1.12,10.936,3.24,16.567,4.31,11.471,13.11,18.958,20.47,27.785,2.75,3.3,5.89,5.643,10.73,4.975,1.64-.226,3.73,1.007,5.25,2.087,4.63,3.3,7.99,3.351,11.98-.607,2.87-2.832,5.41-5.627,9.99-5.9,1.66-.1,3.1-2.735,4.78-4.032,4.26-3.28,9.01-6.034,12.79-9.777,5.18-5.128,11.03-10.335,14-16.713,2.5-5.367,6.22-11.1,4.78-18.182-0.9-4.417.29-9.225-2.66-13.342-0.44-.62-0.1-1.908.08-2.851,0.96-5.165,2.01-10.313,2.94-15.484a3.237,3.237,0,0,0-.4-2.384c-5.84-6.507-.59-14.624-3.16-21.605a3.272,3.272,0,0,1,.81-2.733c4.2-4.159,3.88-9.474,3.46-14.539-0.71-8.433-2.21-16.8-2.98-25.228-0.62-6.762-.67-13.578-0.88-20.372a3.022,3.022,0,0,1,.89-2.238c4.69-3.425,3.32-8.111,3.1-12.756-0.22-4.6-.62-9.49.65-13.788,3.3-11.253,3.52-22.6,2.73-34.085-0.62-8.99.46-10.043,9.07-13.906,5.71-2.567,10.66-6.787,16.26-9.67,4.8-2.473,8.98-6.557,15.04-6.3,1.72,0.072,3.5-.958,5.23-1.548,4.42-1.51,7.3.284,7.35,4.9,0.12,11.74-.01,23.483.2,35.221a34.982,34.982,0,0,0,1.48,10.253c2.81,8.514,4.02,16.711-1.42,24.743-0.84,1.244-.92,3.187-0.91,4.8,0.13,27.087,1.21,54.205.22,81.249-0.71,19.43,1.42,38.735.47,58.142-0.75,15.237-.07,30.545-0.02,45.821,0.03,6.473-8.59,18.27-14.73,20.572a23.7,23.7,0,0,0-6.24,3.753c-5.19,4.139-10.05,8.7-15.37,12.651-4.9,3.633-10.86.812-12.9-4.936-1.52-4.272-4.47-8-3.76-12.994,0.09-.623-2.11-2.155-3.35-2.278-4.61-.458-8.81-0.19-13.31,2.43-9,5.24-19.37,8.3-27.94,14.088-6.41,4.338-13.82,3-20.28,6.579-4.33,2.406-10.68,4.021-15.41-1.983-0.9-1.144-5.58-.738-7.39.542-4.05,2.867-6.76,3.558-11.33.19-3.91-2.883-9.47-3.808-14.45-4.884-6.09-1.315-10.5-4.731-14.24-9.368-0.52-.645-0.88-1.922-1.41-1.977-8.83-.908-8.89-11.637-16.52-14.541-2.92-1.108-4.01-7-5.92-10.723-2.81-5.459-5.78-10.844-8.33-16.418a21.515,21.515,0,0,1-2.24-8.4c-0.14-12.816.07-25.635,0.21-38.454,0.06-5.781-1.59-7.36-7.47-7.043a84.027,84.027,0,0,1-9.48.306c-4.4-.264-6.56,1.985-7.15,5.92a41.451,41.451,0,0,0-.26,7.958C2404.02,772.706,2404.56,783.014,2404.97,791.648ZM1301.7,685.939c0,18.151,1.78,36.529-.51,54.39-2.18,17.141.08,34.208-2.2,51.189-0.62,4.588-.31,9.311-0.27,13.971,0.06,7.143.14,14.118-3.23,20.906-1.5,3.029-1.26,7.2-.95,10.785,0.83,9.56-.89,11.733-11.41,15.758a101.534,101.534,0,0,1-11.96,3.3c-7.23,1.793-9.76-.733-10.45-8.055-4.43-47.356-1.08-94.817-2.01-142.218a318.582,318.582,0,0,0-4.21-45.56c-1.38-8.4,1-17.389-.21-25.844a162.172,162.172,0,0,0-8.14-33.609c-1.99-5.338-8.02-9.264-12.49-13.551-2.38-2.284-5.38-3.908-8.01-5.944-17.71-13.7-33.7-3.3-41.47,9.379-1.13,1.841-1.9,4.073-3.44,5.463-9.12,8.253-11.75,19.711-15.51,30.617a6.827,6.827,0,0,0-.47,2.426c0.45,15.094-.83,30.281,3.16,45.179,1.09,4.063.7,8.523,0.98,12.8,0.02,0.329-.12.673-0.07,0.994,1.65,11.484,3.28,22.971,4.99,34.446,0.51,3.412,1.2,6.8,1.86,10.184,1.46,7.459,2.75,14.958,4.49,22.352,2.09,8.849,4.42,17.648,6.92,26.39,2.64,9.225,5.63,18.349,8.4,27.537,0.56,1.88.79,3.859,1.23,5.78,0.91,4,1.47,8.136,2.88,11.954a12.756,12.756,0,0,1-.84,11.39c-4.61,8.557-11.83,13.6-20.76,16.642a46.537,46.537,0,0,0-5.14,1.937c-7.27,3.5-7.88,3.812-11.69-3.3-4.43-8.267-7.88-17.074-11.5-25.749a128.3,128.3,0,0,1-4.47-13.142c-2.11-7.1-4.63-14.154-5.88-21.414-1.65-9.562-2.23-19.307-3.31-28.968-0.26-2.277-.05-4.912-1.14-6.731-2.9-4.829-2.81-9.957-3.36-15.275-0.68-6.514-3.36-12.8-4.84-19.257a115.058,115.058,0,0,1-1.92-12.7c-0.95-8.376-1.95-16.754-2.57-25.158-0.39-5.459-.02-10.971-0.23-16.45a23.2,23.2,0,0,0-1.24-7.778c-4.48-10.909-4.04-21.607.07-32.524,1.12-2.973.98-6.521,0.96-9.8-0.05-5.886,1.37-11.1,5.21-15.725,3.75-4.528,6.59-9.966,10.86-13.877a83.488,83.488,0,0,1,18.06-13c12.39-6.3,25.28-11.631,38.04-17.2,18.91-8.262,38.73-10.294,59.11-8.329a13.155,13.155,0,0,0,3.97.032c9.24-2.007,15.05,4.064,20.75,9.368,3.8,3.528,6.34,8.4,9.44,12.676,6.21,8.6,17.19,8.555,27.6,2.2,11.64-7.1,24.37-12.434,36.65-18.485,1.18-.58,2.67-0.565,3.79-1.22,14.7-8.62,30.91-9.083,47.05-7.6,13.69,1.255,25.14,7.615,33.57,19.1,8.25,11.217,11.91,23.832,13.05,37.383,1.07,12.732,2.55,25.479,2.65,38.23a147.794,147.794,0,0,1-2.85,29.742c-1.78,9-5.38,17.656-8.3,26.422-0.84,2.511-2.18,4.847-3.15,7.32-3.3,8.446-6.34,16.994-9.83,25.359-4.14,9.913-8.76,19.623-12.93,29.519-4.8,11.372-9.33,22.857-14,34.283-3.24,7.928-6.83,15.733-9.69,23.8a69.042,69.042,0,0,0-3.86,16.408c-0.65,6.8-5.15,10.095-9.97,13.373-5.73,3.895-11.33,8.078-17.44,11.281-6.21,3.26-12.77,6.458-19.55,7.877-6.67,1.395-9.2-1.609-8.93-8.39,0.31-7.68.49-15.131,3.99-22.639a261.376,261.376,0,0,0,13.53-36.8c3.37-11.47,8.8-21.817,14.04-32.4,5.7-11.518,10.4-23.531,15.67-35.271,2.1-4.7,4.9-9.11,6.78-13.888,4.3-10.894,9.24-21.687,12.02-32.987,2.78-11.281,3.49-23.106,4.65-34.738a62.252,62.252,0,0,0-5.53-33.479c-3.93-8.251-8.34-16.107-14.9-22.583-1.9-1.869-3.85-3.675-5.67-5.614-5.77-6.153-11.18-7.543-18.9-4.427-8.54,3.444-17.48,6.267-25.33,10.906-6.7,3.958-12.41,9.8-17.97,15.388-4.03,4.05-7.33,8.9-10.51,13.7-1.16,1.762-1.44,4.375-1.45,6.6-0.11,18.318-.06,36.637-0.06,54.956h0.3Zm505.13,126.2c-3.43,3.868-6.87,7.843-10.41,11.731-9.85,10.819-20.79,20.633-33.07,28.362-7.72,4.864-15.98,9.708-25.77,10.865-7.28.86-14.29,3.807-21.55,5.163-9.17,1.714-18.23,1.326-26.61-3.7a17.54,17.54,0,0,0-6.1-2.077c-14.91-2.416-24.68-19.6-23.38-31.733,0.31-2.866,2.74-5.833,4.88-8.117,7.61-8.132,15.85-15.437,28.24-13.424a16.124,16.124,0,0,1,7.93,3.436c5.25,4.731,9.22,11.287,15.08,14.819,9.25,5.571,19.12,11.265,30.65,10.048,3.31-.35,6.57-2.8,9.47-4.823,1.67-1.164,2.71-3.333,3.82-5.179,6.14-10.228,5.38-16.04-4.61-23.011-7.41-5.171-15.21-9.8-24.54-11.657-12.31-2.444-24.23-7.171-36.6-8.854-10.36-1.409-16.85-8.263-24.55-13.339-8.39-5.526-10.4-20.328-6.78-29.867,7.08-18.656,19.77-31.819,36.81-41.576,10.17-5.82,19.99-12.173,31.65-14.771,2.39-.531,4.5-2.262,6.88-2.873a66.83,66.83,0,0,1,10.62-1.8,38.073,38.073,0,0,1,9.91.064c3.13,0.553,6.82,1.356,8.96,3.405q15.315,14.613,29.74,30.128c1.66,1.782,2.63,5.9,1.75,8.07-5.22,12.89-25.8,25.472-38.71,23.212-7.4-1.294-12.97-5.948-17.98-11.467a91.817,91.817,0,0,0-13.3-12.494c-4.08-2.983-15.24-.384-18.66,3.4-3.44,3.793-2.94,10.132,1.97,13.633,12.5,8.9,25.6,16.012,41.11,19.389,11.59,2.523,23.61,4.533,34.45,10.861,8.11,4.734,14.84,10.271,20.05,17.68,4.25-9.063,8.66-17.964,12.57-27.074,1.2-2.8.29-6.57,1.68-9.195,3.22-6.091,6.43-12.545,11.13-17.416a315.648,315.648,0,0,1,26.9-24.22c8.95-7.362,18.6-13.777,29.85-17.341,2.21-.7,4.29-1.8,6.47-2.584,1.55-.549,3.2-1.309,4.75-1.215,27.77,1.663,50.85,24.737,55.84,52.478,2.88,15.986,2.17,31.827,2.49,47.683,0.15,7.572-3.6,15.383-6.32,22.812-4.05,11.021-12.91,18.658-20.48,27.157a10.454,10.454,0,0,1-3.15,2.411c-12.33,5.954-24.6,12.042-37.07,17.686-16.75,7.582-34.3,6.507-52.17,5.289-13.03-.889-18.2-8.366-22.02-18.824C1814.89,833,1810.89,822.8,1806.83,812.14Zm48.65-25.165-1.7.334c2.01,7.078,4.62,14.055,5.82,21.266,0.99,5.953,3.64,10.568,8.36,13.488a88.221,88.221,0,0,0,16.88,7.885c10.91,3.872,18.38-2.457,25.21-9.652,4.74-5,7.52-10.87,6.85-18.044-0.18-1.947-.5-4.346.39-5.856,5-8.42,2.51-16.335-1.04-24.276q-5.535-12.393-11.11-24.769c-5.22-11.524-13.62-19.669-26.02-22.726-2.98-.736-7.85-0.123-9.64,1.862a53.067,53.067,0,0,0-9.6,15.357C1854.03,756.315,1853.63,771.573,1855.48,786.975ZM807.8,619.4c0,9.825-.369,19.668.107,29.47,0.442,9.091,1.831,18.135,2.714,27.208,0.449,4.607.974,9.232,1,13.851,0.108,20.149.056,40.3,0.03,60.449,0,1.989.279,4.181-.429,5.933-4.3,10.623-3.065,21.421-1.862,32.364,0.462,4.193-.715,8.566-1.144,12.858-0.821,8.218,2.7,13.59,10.933,14.29,10.592,0.9,21.483,2.037,31.876.529,11.378-1.652,21.4-6.845,28.443-17.53,9.492-14.405,14.9-30.163,19.356-46.484a9.468,9.468,0,0,1,.292-0.954c4.875-12.6,8.883-25.642,14.91-37.669,4.794-9.567,12.037-17.564,23.113-21.489,6.555-2.323,12.576-5.474,19.871-5.515,4.74-.027,8.1,1.2,10.515,5.1,1.136,1.836,2.17,3.744,3.119,5.684,4.36,8.914,8.919,17.743,12.927,26.815,3.181,7.2,5.543,14.76,8.506,22.065,1.982,4.885,4.234,9.676,6.622,14.378,5.749,11.32,11.649,22.563,17.489,33.837,0.46,0.884,1.28,1.746,1.33,2.651,0.51,9.369,6.29,16.655,9.84,24.792,2.67,6.113,2.66,12.142-1.21,17.029-6.66,8.4-14.91,15.24-25.89,17.293-7.167,1.34-9.881-.689-13.015-7.11-4.982-10.21-10.037-20.4-15.481-30.365-4.829-8.84-13.371-11.452-23.07-8.343-6.759,2.167-13.856,3.286-20.61,5.466-5.227,1.687-10.224,2.734-15.843,2.254-4.169-.357-7.417,2.473-10.142,6.176-6.557,8.917-13.781,17.522-23.2,23.426-3.1,1.941-8.7,1.785-12.427.491-13.707-4.758-26.418-2.278-39.306,2.953-9.232,3.747-18.473,2.221-28.05-.48-9.263-2.614-19.157-3.048-28.8-4.252-4.575-.572-9.278-0.318-13.784-1.17-3.374-.639-4.533-5.934-1.625-7.435,7.219-3.729,6.563-10.2,6.563-16.43,0-11.319-.424-22.639-0.436-33.959-0.01-10.322.9-20.678,0.3-30.956-0.719-12.384-2.6-24.7-3.975-37.046a57.893,57.893,0,0,1-.621-6.41c0.035-26.142.171-52.283,0.13-78.425,0-1.981-1.171-3.952-1.746-5.943-0.818-2.834-2.3-5.7-2.237-8.522,0.163-6.789,1.185-13.552,1.628-20.341,0.353-5.4.321-10.834,0.558-16.247a10.748,10.748,0,0,1,.823-3.667c1.293-3.037,3.507-5.89,3.978-9.023,0.821-5.452,3.206-9.358,8.065-11.759,3.27-1.615,6.623-3.063,9.94-4.584,3.282-1.5,6.519-3.12,9.86-4.479,3.5-1.424,7-3.081,10.67-3.771,5.131-.964,6.724.575,6.994,5.711q1.768,33.609,3.456,67.222ZM938.174,784.892c1.575-.184,3.071-0.3,4.546-0.541,6.72-1.09,9.085-5.182,6.577-11.447-1.17-2.924-1.919-6.261-3.866-8.561-1.959-2.316-5.044-4.629-7.868-4.959-2.171-.253-5.037,2.232-6.976,4.13-1.958,1.916-3.115,4.634-4.691,6.955-4.121,6.07-1.356,12.559,5.9,13.686C933.927,784.487,936.089,784.656,938.174,784.892ZM2019.88,809.761c0,7.489-.08,14.979.02,22.465,0.1,6.724-1.97,12.409-7.33,16.684-7.05,5.624-13.91,11.537-21.31,16.665-2.29,1.591-6.68,2.239-8.99,1.084-1.89-.941-3.1-5.3-2.89-8,1.14-14.56.48-28.906-3.19-43.083a29.544,29.544,0,0,1-.9-6.417c-0.87-26.411-1.86-52.821-2.34-79.239-0.12-6.388-.23-13.814,2.76-18.96,3.82-6.567,10.52-11.619,16.5-16.719,3.96-3.379,9-5.449,13.23-8.554,4.51-3.314,7.96-3.329,10.74,1.48,1.78,3.078,2.63,6.771,3.48,10.287,1.08,4.423,3.48,6.255,7.97,5.048a34.848,34.848,0,0,0,4.31-1.227c10.39-4.307,20.68-8.9,31.19-12.9,3.46-1.314,7.46-1.467,11.23-1.6,7.97-.284,15.96-0.164,23.94-0.291,6.46-.1,10.79,4.368,15.1,7.887,6.66,5.433,13.65,11.205,18.19,18.309a44.4,44.4,0,0,1,6.43,31.943c-0.89,5.04-1.63,10.106-2.43,15.162-0.23,1.468-.33,2.966-0.68,4.4-2.17,8.818-3.64,17.909-6.79,26.364-4.75,12.709-10.55,25.04-16.2,37.395-3.17,6.932-7.21,13.471-10.34,20.418-1.57,3.487-4.05,4.8-7.32,5.98-10.72,3.859-21.41,7.828-31.97,12.094-6.23,2.518-9.2.937-9.7-5.6-0.53-7.013,2.96-12.706,5.66-18.684,0.13-.291.49-0.477,0.63-0.767q8.07-16.628,16.12-33.27a2.242,2.242,0,0,1,.13-0.478c6.51-8.121,7.6-18.478,11.39-27.718a28.934,28.934,0,0,0,2.3-9.033c0.33-5.47.82-11.139-.22-16.439-2.13-10.9-12.79-32.35-26.49-35.7-8.02-1.956-15.16.572-22.26,3.4-4.55,1.818-8.73,4.551-13.2,6.591-7.52,3.426-11.34,9.014-10.72,17.346,0.66,8.947,1.5,17.881,2.13,26.829,0.87,12.258,1.61,24.524,2.4,36.787Zm671.65-62.786c0-23.177-.06-41.977.01-60.776q0.135-33.883.53-67.765c0.02-1.985,1.2-3.965,1.88-5.93,0.64-1.833,1.92-3.652,1.9-5.465-0.06-4.2,2.11-4.184,5.54-4.9,5.99-1.251,11.66-4.057,17.45-6.255,0.42-.161.7-0.957,1.07-0.974,8.47-.383,15.71-6.729,24.65-4.955,4.64,0.92,4.78,4.488,5.23,7.929,0.91,6.851,1.98,13.7,2.43,20.581a16.143,16.143,0,0,1-2.03,7.814c-1.5,2.958-2.08,5.184.32,8.119,1.4,1.719,1.98,4.545,2.01,6.882,0.15,15.131.05,30.266,0.04,45.4-0.01,5.054.02,10.109,0.04,15.164a2.506,2.506,0,0,1-.03.991c-4,8.265-2.05,17.106-2.5,25.711a11.979,11.979,0,0,0-.11,2.978c4.38,21.258,1.12,42.76,2.08,64.124,0.41,8.909-1.13,17.949,2.38,26.642,0.66,1.621-.12,3.891-0.46,5.821-0.29,1.625-1.53,3.3-1.28,4.769,1.56,9.371-5.53,13.9-11.12,18.481-4.39,3.592-10.5,5.09-15.84,7.515-4.99,2.261-9.96,4.558-14.97,6.749-1.25.545-2.87,1.372-3.94,1-6.28-2.2-10.76-9.31-10.99-16.116-0.54-15.908-1.27-31.81-1.94-47.713C2693.04,782.737,2692.19,762.684,2691.53,746.975Zm-1090.1,86.332c0-21.414.04-42.828-.05-64.241a28.66,28.66,0,0,0-1.21-8.816c-3.84-11.332-3.11-22.556.04-33.839a65.776,65.776,0,0,0,1.45-6.818c1.51-9.237,6.96-15.413,14.99-19.7,2.49-1.327,4.76-3.068,7.28-4.334a21.19,21.19,0,0,1,6.49-2.359c9.96-1.314,12.66,2.021,8.96,11.269-1.67,4.2-1.13,7.826.25,11.99,1.23,3.738,1.24,7.973,1.28,12,0.19,18.059.17,36.121,0.28,54.182,0.03,3.809.19,7.629,0.52,11.424,0.66,7.737,1.92,15.452,2.11,23.2a32.512,32.512,0,0,0,4.71,16.826,4.273,4.273,0,0,1,.36,3.394c-3.03,7-5.38,14.511-12.67,18.608-5.61,3.157-11.27,6.229-16.89,9.377-5.36,3-7.72,2.805-10.52-2.682-2.27-4.453-3.41-9.532-4.7-14.425-1.3-4.947-2.18-10.008-3.25-15.02Zm1131.6-312.076c5.32,0,10.69.432,15.96-.088,11.58-1.141,18.69,5.773,24.68,13.831,1.81,2.425,2.17,7.786.71,10.432-4.97,9.011-10.62,17.077-21.71,20.911-6.27,2.168-12.09,2.814-18.33,3.252a5.88,5.88,0,0,0-3.75,2.019c-2.73,3.463-5.72,3.029-9.33,1.631-2.83-1.1-5.97-1.356-8.95-2.09a61.821,61.821,0,0,1-8.85-2.479c-3.04-1.253-6.43-2.529-8.6-4.809-4-4.214-7.29-9.12-10.7-13.861a3.746,3.746,0,0,1-.39-3.345c3.96-6.1,3.3-15.451,13.09-17.6,3.05-.669,5.44-4.021,8.37-5.72a14.229,14.229,0,0,1,6.34-1.965c7.15-.24,14.31-0.091,21.46-0.091v-0.033ZM1627.31,609.455c6.7,1.084,13.52,1.673,20.05,3.372,8.81,2.29,15.55,13.056,14.1,22.048-1.77,11.05-7.25,19.44-18.25,23.529-7.69,2.861-15.25,6.1-23,8.809-1.8.633-4.16,0.037-6.19-.379-3.4-.7-6.69-2.09-10.11-2.511-11.38-1.4-19.13-7.9-20.64-19.1-0.71-5.286-.5-11.223,1.28-16.143,1.3-3.566,5.48-6.575,9.05-8.735C1603.86,614.13,1614.59,608.918,1627.31,609.455Z" transform="translate(-752.875 -516.781)"/>
  <path id="Forme_3" data-name="Forme 3" class="cls-1" d="M1865.3,1076c3.01-1.61,5.84-2.45,7.72-4.26,6.7-6.45,13.1-13.21,19.57-19.91,1.03-1.07,1.61-2.62,2.75-3.53,0.91-.72,2.96-1.44,3.39-1.01,0.88,0.86,1.12,2.47,1.38,3.81a3.323,3.323,0,0,1-.71,1.83c-14.6,24.82-35,37.73-65.33,32.2-3.09-.56-6.11-2.6-8.65-4.6-1.13-.89-0.98-3.4-1.4-5.17a24.922,24.922,0,0,1,4.98.17c3.83,0.91,7.54,2.83,11.38,3.06,10.19,0.62,16.28-5.9,15.35-16.22-1.05-11.52-5.68-21.79-12.02-32.27-1.05,2.34-1.9,4-2.56,5.73-5.72,15.02-15.28,27.24-27.32,37.66l-0.39.32c-15.59,12.72-26.73,8.53-30.33-11.44-0.14-.75-0.27-1.49-0.52-2.91-3.69,4.01-6.65,7.82-10.21,10.95-4.23,3.71-8.65,7.46-13.58,10.05-7.24,3.8-12.88,1.46-15.27-6.31-1.59-5.17-1.72-10.79-2.4-16.22a59.5,59.5,0,0,1-.03-6.16c-3.73,4.64-6.26,8.54-9.52,11.68-4.89,4.72-9.85,9.63-15.57,13.14-9.97,6.12-17.92,1.99-20.06-9.57-0.43-2.29-.74-4.59-1.23-7.65-18.73,22.65-40.9,26.33-66.55,13.65-1.38,12.5-2.35,25.6-4.39,38.53-2.02,12.8-4.89,25.49-7.9,38.11-0.81,3.4-3.04,6.73-5.39,9.43-5.16,5.91-11.7,4.79-14.39-2.54a35.883,35.883,0,0,1-2-12.22c0.13-21.08,5.6-41.21,11.4-61.26,2.03-7,4.34-13.92,6.85-21.94-3.57,3.14-6.18,5.64-9,7.87a47.446,47.446,0,0,1-23.03,10.18c-13.7,1.99-23.32-4.98-24.07-18.72-1.03-18.73,5.37-35.06,18.7-48.39a18.227,18.227,0,0,1,6.78-4.06c4.18-1.43,8.63-2.02,12.21,1.47,3.49,3.4,3.76,7.81,2.35,12.13-3.95,12.08-11.94,21.06-22.42,27.89-4.41,2.88-5.74,6.86-4.2,13.76,1.13,5.05,4.22,8.59,9.27,8.03a48.551,48.551,0,0,0,16.5-4.52c8.37-4.27,14.19-11.69,18.37-19.95,1.78-3.51,1.63-8.06,2.12-12.17,0.68-5.79.8-11.67,1.87-17.39,0.41-2.2,2.59-5.55,4.21-5.7,2.25-.21,5.6,1.54,6.88,3.49,1.68,2.58,2.1,6.14,2.5,9.34,0.29,2.24-.36,4.6.23,7.44,1.09-1.29,2.08-2.67,3.28-3.84,5.14-4.97,10.08-10.18,15.59-14.69,4.89-4.01,10.8-5.54,16.82-2.42,5.91,3.05,7.23,8.86,7.58,14.86,1.04,17.72-6.97,36.01-20.45,48.54,4.46-.82,9.11-1.11,13.35-2.57,11.7-4.06,20.1-12.27,26.17-22.84,1.34-2.33,1.39-5.41,1.98-8.15,1.31-6.02,2.26-12.13,3.98-18.03a11.382,11.382,0,0,1,10.72-8.33c3.51-.16,5.05,1.44,4.53,4.8-0.38,2.46-1.23,4.84-1.76,7.28-2.46,11.55-5.18,23.07-7.14,34.71-0.55,3.24,1.18,6.86,1.87,10.31,3.38-1.4,7.53-1.97,10.01-4.32,12.9-12.2,21.68-27.32,29.16-43.28,1.18-2.53,2.27-5.47,4.29-7.15,1.55-1.29,4.5-.91,6.83-1.27,0.18,1.86.84,3.83,0.47,5.56-2.38,10.88-5.46,21.63-7.32,32.6-0.92,5.43-.24,11.31.68,16.83,0.74,4.35,4.13,5.59,7.45,2.69,10.37-9.07,20.89-18.19,23.77-32.81a71.2,71.2,0,0,1,2.71-10.64c1.01-2.77,2.19-6.19,4.39-7.63,2.74-1.79,6.61-1.85,9.98-2.66,0.32,2.77,1.62,5.87.8,8.24-3.73,10.83-6.81,21.75-5.38,33.27,0.48,3.84,2.77,7.46,4.23,11.18,3.69-1.49,8.18-2.1,10.92-4.62a99.909,99.909,0,0,0,27.27-41.86,12.221,12.221,0,0,0,.02-5.8c-1.39-8.16-.04-15.79,5.23-22.139,1.74-2.094,5.73-4.138,7.9-3.506,2.03,0.591,4.2,4.772,4.2,7.365-0.02,5.06-1.67,10.09-2.32,15.17-0.29,2.3-.41,4.97.46,7.01,2.16,5.04,4.95,9.82,7.46,14.71C1869.24,1053.7,1869.89,1059.37,1865.3,1076Zm-235.94-10.95c5.59,2.83,11.52,4.76,16.68-.19,11.59-11.13,17.3-25.17,17.81-41.08,0.23-7.17-4.5-9.51-10.18-5.2C1638.47,1030.12,1627.12,1043.96,1629.36,1065.05Zm-14.49,13.12c-7.65,22.53-13.16,45.52-13.5,69.48-0.03,1.94.93,3.9,1.43,5.85h1.96C1612.39,1129.07,1613.25,1103.59,1614.87,1078.17Zm-43.17-34.05c2.49-2.12,5.55-3.84,7.35-6.43a136.341,136.341,0,0,0,9.95-16.9c0.64-1.26-1.04-3.69-1.66-5.59-1.72.74-4.03,1.01-5.06,2.31C1576.21,1025.16,1573.16,1034.18,1571.7,1044.12Zm-100.86-79.247c-4.1.5-7.99,1.193-11.91,1.33-1.62.055-3.28-1.089-4.93-1.688,1.35-1.248,2.52-3.152,4.1-3.606a38.064,38.064,0,0,1,10.32-1.552c3.26-.008,4.79-1.217,5.53-4.268,1.69-7.043,6.14-11.308,13.34-12.451,4.03-.637,5.21.876,4.03,4.782-1,3.326-1.88,6.692-2.89,10.327,6.69,0.9,12.92,1.468,19.05,2.593,43.22,7.934,52.89,59,28.44,84.41-17.01,17.67-37.71,28.15-61.61,32.77a6.735,6.735,0,0,0-4,3.24c-2.11,3.97-11,6.28-14.21,3.13-0.95-.94-1.19-3.07-1.04-4.58,1.71-17.43,3.02-34.92,5.52-52.24,2.85-19.79,6.8-39.424,10.24-59.133A21.086,21.086,0,0,0,1470.84,964.873Zm16.28-.326c-6.11,33.9-13.04,67.453-15.49,101.493a8.211,8.211,0,0,0,1.72.62,10.868,10.868,0,0,0,2.49-.13c20.91-4.69,39.85-13.09,54.06-29.86a37.053,37.053,0,0,0,9.17-22.26C1540.79,983.708,1515.29,964.468,1487.12,964.547Zm555.75,48.343c9.54-5.89,17.98-11.23,26.56-16.334,2.54-1.512,5.64-4.272,8.22-.925,0.55,0.713-2.33,5-4.41,6.649-7.7,6.09-15.72,11.76-23.84,17.75,3.12,4.81,6.37,9.42,9.2,14.28,8.27,14.13,8.04,25.52-.48,35.68-9.11,10.85-26.59,15.77-39.58,11.13-13.15-4.7-18.71-18.89-12.71-32.59,3.77-8.62,10.02-15.27,17.15-21.17,2.69-2.22,5.46-4.34,8.67-6.89a84.994,84.994,0,0,1-5.76-6.91c-4.17-6.2-8.77-12.23-12-18.906-4.54-9.36-1.95-17.788,7.22-22.576,17.55-9.161,35.87-10.607,54.37-2.695,5.03,2.151,9.37,5.618,10.08,11.5a11.376,11.376,0,0,1-1.89,7.3c-2.02,2.829-5.11,2.059-6.65-1.1l-0.19-.465c-6.99-16.277-14.06-19.932-32.39-15.939a40.4,40.4,0,0,0-12.74,5.337c-5.47,3.453-6.75,8.672-3.46,14.362C2032.64,997.971,2037.79,1005.14,2042.87,1012.89Zm-4.18,14.9c-5.5,5.29-10.82,9.86-15.41,15.06a34.6,34.6,0,0,0-6.49,11.03,17.464,17.464,0,0,0,7.17,20.51,16.5,16.5,0,0,0,21.13-4.11,29.468,29.468,0,0,0,5.94-12.81C2053.01,1045.65,2046.07,1037.04,2038.69,1027.79Zm107.86-36.285q-13.86,1.033-27.72,2.069c-6.14.465-12.27,1.239-18.41,1.327-3.75.053-9.07,1.89-9.69-4.589-0.4-4.154,2.76-5.765,9.67-5.75,10.66,0.024,21.32.047,31.97-.168,7.48-.15,14.96-0.911,22.44-1.007,8.54-.11,11.32,3.731,8.42,11.708a78.7,78.7,0,0,1-5.85,12.125c-18.43,31.99-34,65.26-45.47,100.41a38.768,38.768,0,0,1-3.4,7.2c-2.13,3.73-5.62,4.74-9.47,3.46-4.22-1.39-3.35-5.23-2.41-8.06,3.81-11.51,7.15-23.3,12.23-34.26,11.07-23.86,23.15-47.25,34.68-70.9,1.85-3.78,2.99-7.914,4.45-11.887Q2147.27,992.345,2146.55,991.505Zm50.03,13.105c-6.77,4.53-12.38,8.68-18.39,12.11-2.2,1.25-7.05,1.96-7.78.9-2.51-3.64.84-6.04,3.69-7.83a99.82,99.82,0,0,0,27.01-24.957,12.461,12.461,0,0,1,14.6-4.514c3.08,1.17,4.29,3.248,2.82,6.255-13.26,27.236-17,56.946-22.4,86.226-1.32,7.15-8.82,12.42-15.81,10.51-0.98-.27-2.18-2.52-2.03-3.69a82.96,82.96,0,0,1,2.42-11.19c4.61-16.86,9.4-33.66,13.9-50.54C2195.66,1013.91,2195.85,1009.71,2196.58,1004.61Zm-229.23.32c-6.29,4.22-11.9,8.37-17.91,11.8-2.19,1.25-7.12,1.91-7.76.9-2.29-3.6.79-6.04,3.73-7.87a97.84,97.84,0,0,0,27.3-25.347c3.37-4.6,8.02-5.575,13.33-4.348,4.03,0.931,5.24,3.486,3.5,7.079-12.57,26.026-16.47,54.336-21.5,82.306-1.9,10.55-2.92,12.16-13.57,13.79-4.62.71-6.02-.49-4.86-5.14,1.79-7.26,4.31-14.34,6.11-21.61,4.01-16.29,7.77-32.65,11.61-48.99A14.664,14.664,0,0,0,1967.35,1004.93Zm-158.67-6.413c0.01,4.953-4.07,9.363-8.34,9.183-3.96-.16-5.51-2.68-5.67-6.26-0.21-4.855,3.62-9.216,7.92-9.156C1806.86,992.345,1808.19,995.186,1808.68,998.517Z" transform="translate(-752.875 -516.781)"/>
</svg>
